<svg width="16" height="20" viewBox="0 0 16 20" fill="none" xmlns="http://www.w3.org/2000/svg">
<path fill-rule="evenodd" clip-rule="evenodd" d="M8 19.4397L8.54811 18.9611C13.1572 14.9364 15.5 11.4223 15.5 8.33334C15.5 3.9589 12.0858 0.833344 8 0.833344C3.91421 0.833344 0.5 3.9589 0.5 8.33334C0.5 11.4223 2.84276 14.9364 7.45189 18.9611L8 19.4397ZM8 17.2195C4.08884 13.6946 2.16666 10.7077 2.16666 8.33334C2.16666 4.91384 4.80342 2.50001 8 2.50001C11.1966 2.50001 13.8333 4.91384 13.8333 8.33334C13.8333 10.7077 11.9112 13.6946 8 17.2195ZM8 4.16668C10.3012 4.16668 12.1667 6.03216 12.1667 8.33335C12.1667 10.6345 10.3012 12.5 8 12.5C5.69882 12.5 3.83334 10.6345 3.83334 8.33335C3.83334 6.03216 5.69882 4.16668 8 4.16668ZM5.5 8.33334C5.5 6.95263 6.61929 5.83334 8 5.83334C9.38071 5.83334 10.5 6.95263 10.5 8.33334C10.5 9.71406 9.38071 10.8333 8 10.8333C6.61929 10.8333 5.5 9.71406 5.5 8.33334Z" fill="#263056"/>
</svg>
