<svg width="563" height="267" viewBox="0 0 563 267" fill="none" xmlns="http://www.w3.org/2000/svg">
<g opacity="0.1">
<line x1="4.37114e-08" y1="1.5" x2="552" y2="1.50005" stroke="url(#paint0_linear)"/>
<line x1="4.37114e-08" y1="229.5" x2="552" y2="229.5" stroke="url(#paint1_linear)"/>
<line x1="4.37114e-08" y1="191.5" x2="552" y2="191.5" stroke="url(#paint2_linear)"/>
<line x1="4.37114e-08" y1="153.5" x2="552" y2="153.5" stroke="url(#paint3_linear)"/>
<line x1="4.37114e-08" y1="115.5" x2="552" y2="115.5" stroke="url(#paint4_linear)"/>
<line x1="4.37114e-08" y1="77.5" x2="552" y2="77.5" stroke="url(#paint5_linear)"/>
<line x1="4.37114e-08" y1="39.5" x2="552" y2="39.5" stroke="url(#paint6_linear)"/>
</g>
<g opacity="0.15" filter="url(#filter0_f)">
<path d="M90 256C90 256 147 216 205 216C263 216 263 209 321 209C378 209 378 194 436 194C494 194 552 139 552 139" stroke="#263056" stroke-width="2"/>
</g>
<path d="M60 4C60 4 121 149 183 149C244 149 244 112 306 112C367 112 367 88 429 88C490 88 552 230 552 230" stroke="#263056" stroke-width="2"/>
<circle cx="60" cy="4" r="4" fill="#263056"/>
<circle cx="183" cy="149" r="4" fill="#263056"/>
<circle cx="306" cy="112" r="4" fill="#263056"/>
<circle cx="429" cy="88" r="4" fill="#263056"/>
<circle cx="552" cy="230" r="4" fill="#263056"/>
<path d="M90 229C90 229 147 189 205 189C263 189 263 182 321 182C378 182 378 167 436 167C494 167 552 112 552 112" stroke="#FFB84E" stroke-width="2"/>
<circle cx="90" cy="229" r="4" fill="#FFB84E"/>
<circle cx="205" cy="189" r="4" fill="#FFB84E"/>
<circle cx="321" cy="182" r="4" fill="#FFB84E"/>
<circle cx="436" cy="167" r="4" fill="#FFB84E"/>
<circle cx="552" cy="112" r="4" fill="#FFB84E"/>
<g opacity="0.15" filter="url(#filter1_f)">
<path d="M60 25C60 25 121 170 183 170C244 170 244 133 306 133C367 133 367 109 429 109C490 109 552 251 552 251" stroke="#263056" stroke-width="2"/>
</g>
<path fill-rule="evenodd" clip-rule="evenodd" d="M151 94C148.791 94 147 95.7909 147 98V122C147 124.209 148.791 126 151 126H179.536L183 132L186.464 126H216C218.209 126 220 124.209 220 122V98C220 95.7909 218.209 94 216 94H151Z" fill="#263056"/>
<path d="M163.53 107.008L161.29 108.848L160.17 107.52L163.706 104.672H165.45V116H163.53V107.008Z" fill="white"/>
<path d="M174.16 113.648H168.928V111.952L173.744 104.672H176.048V112H177.632V113.648H176.048V116H174.16V113.648ZM174.16 106.928H174.128L170.912 112H174.16V106.928Z" fill="white"/>
<path d="M181.509 109.328H182.021C182.309 109.328 182.592 109.307 182.869 109.264C183.157 109.211 183.419 109.12 183.653 108.992C183.888 108.864 184.075 108.693 184.213 108.48C184.363 108.256 184.437 107.968 184.437 107.616C184.437 107.36 184.389 107.131 184.293 106.928C184.197 106.725 184.064 106.555 183.893 106.416C183.733 106.277 183.541 106.171 183.317 106.096C183.104 106.021 182.88 105.984 182.645 105.984C182.176 105.984 181.787 106.117 181.477 106.384C181.168 106.651 180.955 107.003 180.837 107.44L179.029 106.976C179.125 106.592 179.285 106.245 179.509 105.936C179.744 105.616 180.021 105.344 180.341 105.12C180.672 104.885 181.04 104.704 181.445 104.576C181.851 104.448 182.277 104.384 182.725 104.384C183.216 104.384 183.68 104.453 184.117 104.592C184.565 104.72 184.955 104.917 185.285 105.184C185.627 105.44 185.893 105.76 186.085 106.144C186.277 106.528 186.373 106.976 186.373 107.488C186.373 108.096 186.187 108.64 185.813 109.12C185.451 109.589 184.96 109.899 184.341 110.048V110.08C185.035 110.219 185.595 110.533 186.021 111.024C186.459 111.504 186.677 112.096 186.677 112.8C186.677 113.387 186.56 113.899 186.325 114.336C186.101 114.773 185.797 115.136 185.413 115.424C185.04 115.712 184.619 115.925 184.149 116.064C183.68 116.213 183.205 116.288 182.725 116.288C182.245 116.288 181.792 116.235 181.365 116.128C180.939 116.032 180.544 115.877 180.181 115.664C179.829 115.451 179.515 115.173 179.237 114.832C178.971 114.491 178.763 114.085 178.613 113.616L180.405 113.056C180.544 113.504 180.8 113.883 181.173 114.192C181.557 114.501 182.053 114.656 182.661 114.656C182.907 114.656 183.152 114.624 183.397 114.56C183.653 114.485 183.877 114.373 184.069 114.224C184.272 114.075 184.432 113.883 184.549 113.648C184.677 113.413 184.741 113.125 184.741 112.784C184.741 112.421 184.651 112.117 184.469 111.872C184.299 111.616 184.08 111.419 183.813 111.28C183.547 111.131 183.248 111.024 182.917 110.96C182.597 110.896 182.288 110.864 181.989 110.864H181.509V109.328Z" fill="white"/>
<path d="M188.747 114.24L193.115 109.952C193.467 109.611 193.744 109.269 193.947 108.928C194.16 108.576 194.267 108.176 194.267 107.728C194.267 107.195 194.091 106.773 193.739 106.464C193.397 106.144 192.971 105.984 192.459 105.984C191.915 105.984 191.477 106.171 191.147 106.544C190.816 106.907 190.613 107.365 190.539 107.92L188.667 107.632C188.72 107.163 188.853 106.731 189.067 106.336C189.28 105.941 189.552 105.6 189.883 105.312C190.213 105.024 190.597 104.8 191.035 104.64C191.483 104.469 191.968 104.384 192.491 104.384C192.981 104.384 193.451 104.453 193.899 104.592C194.357 104.731 194.763 104.944 195.115 105.232C195.467 105.509 195.744 105.856 195.947 106.272C196.16 106.677 196.267 107.152 196.267 107.696C196.267 108.059 196.219 108.4 196.123 108.72C196.027 109.029 195.893 109.323 195.723 109.6C195.563 109.877 195.371 110.144 195.147 110.4C194.933 110.645 194.699 110.885 194.443 111.12L191.179 114.24H196.283V116H188.747V114.24Z" fill="white"/>
<path d="M202.448 104.48C203.035 104.491 203.627 104.592 204.224 104.784C204.822 104.965 205.339 105.243 205.776 105.616L204.48 106.96C204.235 106.683 203.926 106.475 203.552 106.336C203.19 106.187 202.822 106.112 202.448 106.112V109.344C202.854 109.472 203.259 109.621 203.664 109.792C204.07 109.963 204.432 110.181 204.752 110.448C205.083 110.704 205.35 111.019 205.552 111.392C205.755 111.765 205.856 112.224 205.856 112.768C205.856 113.323 205.76 113.813 205.568 114.24C205.387 114.656 205.136 115.008 204.816 115.296C204.507 115.573 204.144 115.787 203.728 115.936C203.323 116.085 202.896 116.165 202.448 116.176V117.328H201.584V116.176C200.88 116.155 200.203 116.027 199.552 115.792C198.912 115.547 198.336 115.179 197.824 114.688L199.232 113.344C199.52 113.685 199.883 113.968 200.32 114.192C200.758 114.405 201.179 114.517 201.584 114.528V110.976C201.115 110.848 200.678 110.704 200.272 110.544C199.867 110.373 199.51 110.16 199.2 109.904C198.902 109.648 198.667 109.344 198.496 108.992C198.326 108.629 198.24 108.192 198.24 107.68C198.24 107.2 198.331 106.773 198.512 106.4C198.704 106.016 198.955 105.691 199.264 105.424C199.584 105.157 199.942 104.949 200.336 104.8C200.742 104.64 201.158 104.544 201.584 104.512V103.424H202.448V104.48ZM201.584 106.112C201.211 106.155 200.88 106.293 200.592 106.528C200.304 106.763 200.16 107.115 200.16 107.584C200.16 108.032 200.294 108.373 200.56 108.608C200.838 108.832 201.179 109.003 201.584 109.12V106.112ZM202.448 114.528C202.896 114.507 203.254 114.347 203.52 114.048C203.798 113.749 203.936 113.36 203.936 112.88C203.936 112.411 203.792 112.059 203.504 111.824C203.227 111.579 202.875 111.381 202.448 111.232V114.528Z" fill="white"/>
<path fill-rule="evenodd" clip-rule="evenodd" d="M289 126C286.791 126 285 127.791 285 130V154C285 156.209 286.791 158 289 158H317.536L321 164L324.464 158H354C356.209 158 358 156.209 358 154V130C358 127.791 356.209 126 354 126H289Z" fill="#FFB84E"/>
<path d="M301.53 139.008L299.29 140.848L298.17 139.52L301.706 136.672H303.45V148H301.53V139.008Z" fill="white"/>
<path d="M307.696 146.24L312.064 141.952C312.416 141.611 312.693 141.269 312.896 140.928C313.109 140.576 313.216 140.176 313.216 139.728C313.216 139.195 313.04 138.773 312.688 138.464C312.346 138.144 311.92 137.984 311.408 137.984C310.864 137.984 310.426 138.171 310.096 138.544C309.765 138.907 309.562 139.365 309.488 139.92L307.616 139.632C307.669 139.163 307.802 138.731 308.016 138.336C308.229 137.941 308.501 137.6 308.832 137.312C309.162 137.024 309.546 136.8 309.984 136.64C310.432 136.469 310.917 136.384 311.44 136.384C311.93 136.384 312.4 136.453 312.848 136.592C313.306 136.731 313.712 136.944 314.064 137.232C314.416 137.509 314.693 137.856 314.896 138.272C315.109 138.677 315.216 139.152 315.216 139.696C315.216 140.059 315.168 140.4 315.072 140.72C314.976 141.029 314.842 141.323 314.672 141.6C314.512 141.877 314.32 142.144 314.096 142.4C313.882 142.645 313.648 142.885 313.392 143.12L310.128 146.24H315.232V148H307.696V146.24Z" fill="white"/>
<path d="M320.581 139.008L318.341 140.848L317.221 139.52L320.757 136.672H322.501V148H320.581V139.008Z" fill="white"/>
<path d="M333.723 138.4H329.099L328.987 140.848C329.168 140.795 329.381 140.757 329.627 140.736C329.883 140.715 330.112 140.704 330.315 140.704C330.869 140.704 331.381 140.784 331.851 140.944C332.331 141.104 332.747 141.339 333.099 141.648C333.451 141.947 333.723 142.32 333.915 142.768C334.117 143.205 334.219 143.712 334.219 144.288C334.219 144.917 334.107 145.483 333.883 145.984C333.669 146.475 333.376 146.891 333.003 147.232C332.629 147.573 332.192 147.835 331.691 148.016C331.189 148.197 330.656 148.288 330.091 148.288C329.141 148.288 328.341 148.069 327.691 147.632C327.04 147.184 326.565 146.576 326.267 145.808L328.011 145.168C328.171 145.616 328.437 145.979 328.811 146.256C329.184 146.523 329.627 146.656 330.139 146.656C330.427 146.656 330.699 146.608 330.955 146.512C331.211 146.416 331.435 146.277 331.627 146.096C331.819 145.915 331.968 145.691 332.075 145.424C332.192 145.147 332.251 144.837 332.251 144.496C332.251 144.059 332.176 143.696 332.027 143.408C331.877 143.12 331.68 142.891 331.435 142.72C331.2 142.539 330.933 142.416 330.635 142.352C330.336 142.277 330.032 142.24 329.723 142.24C329.509 142.24 329.28 142.256 329.035 142.288C328.8 142.32 328.565 142.368 328.331 142.432C328.107 142.485 327.883 142.549 327.659 142.624C327.445 142.699 327.253 142.779 327.083 142.864L327.275 136.672H333.723V138.4Z" fill="white"/>
<path d="M340.448 136.48C341.035 136.491 341.627 136.592 342.224 136.784C342.822 136.965 343.339 137.243 343.776 137.616L342.48 138.96C342.235 138.683 341.926 138.475 341.552 138.336C341.19 138.187 340.822 138.112 340.448 138.112V141.344C340.854 141.472 341.259 141.621 341.664 141.792C342.07 141.963 342.432 142.181 342.752 142.448C343.083 142.704 343.35 143.019 343.552 143.392C343.755 143.765 343.856 144.224 343.856 144.768C343.856 145.323 343.76 145.813 343.568 146.24C343.387 146.656 343.136 147.008 342.816 147.296C342.507 147.573 342.144 147.787 341.728 147.936C341.323 148.085 340.896 148.165 340.448 148.176V149.328H339.584V148.176C338.88 148.155 338.203 148.027 337.552 147.792C336.912 147.547 336.336 147.179 335.824 146.688L337.232 145.344C337.52 145.685 337.883 145.968 338.32 146.192C338.758 146.405 339.179 146.517 339.584 146.528V142.976C339.115 142.848 338.678 142.704 338.272 142.544C337.867 142.373 337.51 142.16 337.2 141.904C336.902 141.648 336.667 141.344 336.496 140.992C336.326 140.629 336.24 140.192 336.24 139.68C336.24 139.2 336.331 138.773 336.512 138.4C336.704 138.016 336.955 137.691 337.264 137.424C337.584 137.157 337.942 136.949 338.336 136.8C338.742 136.64 339.158 136.544 339.584 136.512V135.424H340.448V136.48ZM339.584 138.112C339.211 138.155 338.88 138.293 338.592 138.528C338.304 138.763 338.16 139.115 338.16 139.584C338.16 140.032 338.294 140.373 338.56 140.608C338.838 140.832 339.179 141.003 339.584 141.12V138.112ZM340.448 146.528C340.896 146.507 341.254 146.347 341.52 146.048C341.798 145.749 341.936 145.36 341.936 144.88C341.936 144.411 341.792 144.059 341.504 143.824C341.227 143.579 340.875 143.381 340.448 143.232V146.528Z" fill="white"/>
<path fill-rule="evenodd" clip-rule="evenodd" d="M397 34C394.791 34 393 35.7909 393 38V62C393 64.2091 394.791 66 397 66H425.536L429 72L432.464 66H462C464.209 66 466 64.2091 466 62V38C466 35.7909 464.209 34 462 34H397Z" fill="#263056"/>
<path d="M409.53 47.008L407.29 48.848L406.17 47.52L409.706 44.672H411.45V56H409.53V47.008Z" fill="white"/>
<path d="M415.408 44.672H423.104V46.432L418.576 56H416.32L421.088 46.4H415.408V44.672Z" fill="white"/>
<path d="M432.197 46.4H427.573L427.461 48.848C427.643 48.7947 427.856 48.7573 428.101 48.736C428.357 48.7147 428.587 48.704 428.789 48.704C429.344 48.704 429.856 48.784 430.325 48.944C430.805 49.104 431.221 49.3387 431.573 49.648C431.925 49.9467 432.197 50.32 432.389 50.768C432.592 51.2053 432.693 51.712 432.693 52.288C432.693 52.9173 432.581 53.4827 432.357 53.984C432.144 54.4747 431.851 54.8907 431.477 55.232C431.104 55.5733 430.667 55.8347 430.165 56.016C429.664 56.1973 429.131 56.288 428.565 56.288C427.616 56.288 426.816 56.0693 426.165 55.632C425.515 55.184 425.04 54.576 424.741 53.808L426.485 53.168C426.645 53.616 426.912 53.9787 427.285 54.256C427.659 54.5227 428.101 54.656 428.613 54.656C428.901 54.656 429.173 54.608 429.429 54.512C429.685 54.416 429.909 54.2773 430.101 54.096C430.293 53.9147 430.443 53.6907 430.549 53.424C430.667 53.1467 430.725 52.8373 430.725 52.496C430.725 52.0587 430.651 51.696 430.501 51.408C430.352 51.12 430.155 50.8907 429.909 50.72C429.675 50.5387 429.408 50.416 429.109 50.352C428.811 50.2773 428.507 50.24 428.197 50.24C427.984 50.24 427.755 50.256 427.509 50.288C427.275 50.32 427.04 50.368 426.805 50.432C426.581 50.4853 426.357 50.5493 426.133 50.624C425.92 50.6987 425.728 50.7787 425.557 50.864L425.749 44.672H432.197V46.4Z" fill="white"/>
<path d="M442.523 50.336C442.523 51.2533 442.432 52.08 442.251 52.816C442.08 53.552 441.824 54.176 441.483 54.688C441.152 55.2 440.736 55.5947 440.235 55.872C439.744 56.1493 439.179 56.288 438.539 56.288C437.899 56.288 437.328 56.1493 436.827 55.872C436.325 55.5947 435.904 55.2 435.563 54.688C435.221 54.176 434.96 53.552 434.779 52.816C434.608 52.08 434.523 51.2533 434.523 50.336C434.523 49.4187 434.608 48.592 434.779 47.856C434.96 47.12 435.221 46.496 435.563 45.984C435.904 45.472 436.325 45.0773 436.827 44.8C437.328 44.5227 437.899 44.384 438.539 44.384C439.179 44.384 439.744 44.5227 440.235 44.8C440.736 45.0773 441.152 45.472 441.483 45.984C441.824 46.496 442.08 47.12 442.251 47.856C442.432 48.592 442.523 49.4187 442.523 50.336ZM440.555 50.336C440.555 49.9413 440.528 49.4933 440.475 48.992C440.432 48.4907 440.336 48.016 440.187 47.568C440.048 47.12 439.845 46.7467 439.579 46.448C439.312 46.1387 438.965 45.984 438.539 45.984C438.101 45.984 437.749 46.1387 437.483 46.448C437.216 46.7467 437.008 47.12 436.859 47.568C436.72 48.016 436.624 48.4907 436.571 48.992C436.517 49.4933 436.491 49.9413 436.491 50.336C436.491 50.7307 436.517 51.1787 436.571 51.68C436.624 52.1813 436.72 52.6507 436.859 53.088C437.008 53.5253 437.216 53.8987 437.483 54.208C437.749 54.5067 438.101 54.656 438.539 54.656C438.965 54.656 439.312 54.5067 439.579 54.208C439.845 53.8987 440.048 53.5253 440.187 53.088C440.336 52.6507 440.432 52.1813 440.475 51.68C440.528 51.1787 440.555 50.7307 440.555 50.336Z" fill="white"/>
<path d="M448.448 44.48C449.035 44.4907 449.627 44.592 450.224 44.784C450.822 44.9653 451.339 45.2427 451.776 45.616L450.48 46.96C450.235 46.6827 449.926 46.4747 449.552 46.336C449.19 46.1867 448.822 46.112 448.448 46.112V49.344C448.854 49.472 449.259 49.6213 449.664 49.792C450.07 49.9627 450.432 50.1813 450.752 50.448C451.083 50.704 451.35 51.0187 451.552 51.392C451.755 51.7653 451.856 52.224 451.856 52.768C451.856 53.3227 451.76 53.8133 451.568 54.24C451.387 54.656 451.136 55.008 450.816 55.296C450.507 55.5733 450.144 55.7867 449.728 55.936C449.323 56.0853 448.896 56.1653 448.448 56.176V57.328H447.584V56.176C446.88 56.1547 446.203 56.0267 445.552 55.792C444.912 55.5467 444.336 55.1787 443.824 54.688L445.232 53.344C445.52 53.6853 445.883 53.968 446.32 54.192C446.758 54.4053 447.179 54.5173 447.584 54.528V50.976C447.115 50.848 446.678 50.704 446.272 50.544C445.867 50.3733 445.51 50.16 445.2 49.904C444.902 49.648 444.667 49.344 444.496 48.992C444.326 48.6293 444.24 48.192 444.24 47.68C444.24 47.2 444.331 46.7733 444.512 46.4C444.704 46.016 444.955 45.6907 445.264 45.424C445.584 45.1573 445.942 44.9493 446.336 44.8C446.742 44.64 447.158 44.544 447.584 44.512V43.424H448.448V44.48ZM447.584 46.112C447.211 46.1547 446.88 46.2933 446.592 46.528C446.304 46.7627 446.16 47.1147 446.16 47.584C446.16 48.032 446.294 48.3733 446.56 48.608C446.838 48.832 447.179 49.0027 447.584 49.12V46.112ZM448.448 54.528C448.896 54.5067 449.254 54.3467 449.52 54.048C449.798 53.7493 449.936 53.36 449.936 52.88C449.936 52.4107 449.792 52.0587 449.504 51.824C449.227 51.5787 448.875 51.3813 448.448 51.232V54.528Z" fill="white"/>
<defs>
<filter id="filter0_f" x="79.4266" y="128.275" width="483.261" height="138.544" filterUnits="userSpaceOnUse" color-interpolation-filters="sRGB">
<feFlood flood-opacity="0" result="BackgroundImageFix"/>
<feBlend mode="normal" in="SourceGraphic" in2="BackgroundImageFix" result="shape"/>
<feGaussianBlur stdDeviation="5" result="effect1_foregroundBlur"/>
</filter>
<filter id="filter1_f" x="49.079" y="14.6135" width="513.837" height="246.785" filterUnits="userSpaceOnUse" color-interpolation-filters="sRGB">
<feFlood flood-opacity="0" result="BackgroundImageFix"/>
<feBlend mode="normal" in="SourceGraphic" in2="BackgroundImageFix" result="shape"/>
<feGaussianBlur stdDeviation="5" result="effect1_foregroundBlur"/>
</filter>
<linearGradient id="paint0_linear" x1="552" y1="2" x2="0" y2="2" gradientUnits="userSpaceOnUse">
<stop stop-color="#263056" stop-opacity="0"/>
<stop offset="0.494792" stop-color="#263056"/>
<stop offset="1" stop-color="#263056" stop-opacity="0"/>
</linearGradient>
<linearGradient id="paint1_linear" x1="552" y1="230" x2="0" y2="230" gradientUnits="userSpaceOnUse">
<stop stop-color="#263056" stop-opacity="0"/>
<stop offset="0.494792" stop-color="#263056"/>
<stop offset="1" stop-color="#263056" stop-opacity="0"/>
</linearGradient>
<linearGradient id="paint2_linear" x1="552" y1="192" x2="0" y2="192" gradientUnits="userSpaceOnUse">
<stop stop-color="#263056" stop-opacity="0"/>
<stop offset="0.494792" stop-color="#263056"/>
<stop offset="1" stop-color="#263056" stop-opacity="0"/>
</linearGradient>
<linearGradient id="paint3_linear" x1="552" y1="154" x2="0" y2="154" gradientUnits="userSpaceOnUse">
<stop stop-color="#263056" stop-opacity="0"/>
<stop offset="0.494792" stop-color="#263056"/>
<stop offset="1" stop-color="#263056" stop-opacity="0"/>
</linearGradient>
<linearGradient id="paint4_linear" x1="552" y1="116" x2="0" y2="116" gradientUnits="userSpaceOnUse">
<stop stop-color="#263056" stop-opacity="0"/>
<stop offset="0.494792" stop-color="#263056"/>
<stop offset="1" stop-color="#263056" stop-opacity="0"/>
</linearGradient>
<linearGradient id="paint5_linear" x1="552" y1="78" x2="0" y2="78" gradientUnits="userSpaceOnUse">
<stop stop-color="#263056" stop-opacity="0"/>
<stop offset="0.494792" stop-color="#263056"/>
<stop offset="1" stop-color="#263056" stop-opacity="0"/>
</linearGradient>
<linearGradient id="paint6_linear" x1="552" y1="40" x2="0" y2="40" gradientUnits="userSpaceOnUse">
<stop stop-color="#263056" stop-opacity="0"/>
<stop offset="0.494792" stop-color="#263056"/>
<stop offset="1" stop-color="#263056" stop-opacity="0"/>
</linearGradient>
</defs>
</svg>
