<svg width="70" height="65" viewBox="0 0 70 65" fill="none" xmlns="http://www.w3.org/2000/svg">
<g clip-path="url(#clip0)">
<path d="M62.21 28.57H1.35001L8.35001 7.79H55.21L62.21 28.57Z" fill="#DEE5FF" stroke="#263056" stroke-width="2" stroke-miterlimit="10" stroke-linecap="round" stroke-linejoin="round"/>
<path d="M3.59 28.57V56.42" stroke="#263056" stroke-width="2" stroke-miterlimit="10" stroke-linecap="round" stroke-linejoin="round"/>
<path d="M60.07 28.57V56.42" stroke="#263056" stroke-width="2" stroke-miterlimit="10" stroke-linecap="round" stroke-linejoin="round"/>
<path d="M0.5 56.42H62.72" stroke="#263056" stroke-width="2" stroke-miterlimit="10" stroke-linecap="round" stroke-linejoin="round"/>
<path d="M44.71 16.64L31.61 3.64L18.96 16.64V56.42H44.71V16.64Z" fill="#F6F6F9" stroke="#263056" stroke-width="2" stroke-miterlimit="10" stroke-linecap="round" stroke-linejoin="round"/>
<path d="M37.41 56.42V41.61H26.47V56.42" stroke="#263056" stroke-width="2" stroke-miterlimit="10" stroke-linecap="round" stroke-linejoin="round"/>
<path d="M40.52 62.1699H65.2C67.15 62.1699 68.72 60.5899 68.72 58.6499V51.6599C68.72 49.7099 67.14 48.1399 65.2 48.1399H40.52C38.57 48.1399 37 49.7199 37 51.6599V58.6499C37 60.5899 38.57 62.1699 40.52 62.1699Z" fill="#263056"/>
<path d="M49.68 7.79V0.5" stroke="#263056" stroke-width="2" stroke-miterlimit="10" stroke-linecap="round" stroke-linejoin="round"/>
<path d="M9 37.5C8.44772 37.5 8 37.9477 8 38.5C8 39.0523 8.44772 39.5 9 39.5V37.5ZM13.5 39.5C14.0523 39.5 14.5 39.0523 14.5 38.5C14.5 37.9477 14.0523 37.5 13.5 37.5V39.5ZM9 39.5H13.5V37.5H9V39.5Z" fill="#263056"/>
<path d="M50 37.5C49.4477 37.5 49 37.9477 49 38.5C49 39.0523 49.4477 39.5 50 39.5V37.5ZM54.5 39.5C55.0523 39.5 55.5 39.0523 55.5 38.5C55.5 37.9477 55.0523 37.5 54.5 37.5V39.5ZM50 39.5H54.5V37.5H50V39.5Z" fill="#263056"/>
<circle cx="32" cy="20" r="3" stroke="#263056" stroke-width="2"/>
<path d="M44.4839 53.284C44.3519 53.116 44.1779 52.984 43.9619 52.888C43.7519 52.786 43.5479 52.735 43.3499 52.735C43.2479 52.735 43.1429 52.744 43.0349 52.762C42.9329 52.78 42.8399 52.816 42.7559 52.87C42.6719 52.918 42.5999 52.984 42.5399 53.068C42.4859 53.146 42.4589 53.248 42.4589 53.374C42.4589 53.482 42.4799 53.572 42.5219 53.644C42.5699 53.716 42.6359 53.779 42.7199 53.833C42.8099 53.887 42.9149 53.938 43.0349 53.986C43.1549 54.028 43.2899 54.073 43.4399 54.121C43.6559 54.193 43.8809 54.274 44.1149 54.364C44.3489 54.448 44.5619 54.562 44.7539 54.706C44.9459 54.85 45.1049 55.03 45.2309 55.246C45.3569 55.456 45.4199 55.72 45.4199 56.038C45.4199 56.404 45.3509 56.722 45.2129 56.992C45.0809 57.256 44.9009 57.475 44.6729 57.649C44.4449 57.823 44.1839 57.952 43.8899 58.036C43.5959 58.12 43.2929 58.162 42.9809 58.162C42.5249 58.162 42.0839 58.084 41.6579 57.928C41.2319 57.766 40.8779 57.538 40.5959 57.244L41.6039 56.218C41.7599 56.41 41.9639 56.572 42.2159 56.704C42.4739 56.83 42.7289 56.893 42.9809 56.893C43.0949 56.893 43.2059 56.881 43.3139 56.857C43.4219 56.833 43.5149 56.794 43.5929 56.74C43.6769 56.686 43.7429 56.614 43.7909 56.524C43.8389 56.434 43.8629 56.326 43.8629 56.2C43.8629 56.08 43.8329 55.978 43.7729 55.894C43.7129 55.81 43.6259 55.735 43.5119 55.669C43.4039 55.597 43.2659 55.534 43.0979 55.48C42.9359 55.42 42.7499 55.357 42.5399 55.291C42.3359 55.225 42.1349 55.147 41.9369 55.057C41.7449 54.967 41.5709 54.853 41.4149 54.715C41.2649 54.571 41.1419 54.4 41.0459 54.202C40.9559 53.998 40.9109 53.752 40.9109 53.464C40.9109 53.11 40.9829 52.807 41.1269 52.555C41.2709 52.303 41.4599 52.096 41.6939 51.934C41.9279 51.772 42.1919 51.655 42.4859 51.583C42.7799 51.505 43.0769 51.466 43.3769 51.466C43.7369 51.466 44.1029 51.532 44.4749 51.664C44.8529 51.796 45.1829 51.991 45.4649 52.249L44.4839 53.284ZM51.7553 58L51.2603 56.749H48.7943L48.3263 58H46.6523L49.3253 51.628H50.8193L53.4653 58H51.7553ZM50.0453 53.329L49.2353 55.516H50.8373L50.0453 53.329ZM54.992 58V51.628H56.54V56.659H59.006V58H54.992ZM60.7293 58V51.628H65.0133V52.933H62.2143V54.13H64.8603V55.363H62.2143V56.686H65.1753V58H60.7293Z" fill="white"/>
</g>
<defs>
<clipPath id="clip0">
<rect width="70" height="65" fill="white"/>
</clipPath>
</defs>
</svg>
