<svg width="63" height="73" viewBox="0 0 63 73" fill="none" xmlns="http://www.w3.org/2000/svg">
<g clip-path="url(#clip0)">
<path d="M46.29 10.11H8.85C7.53 10.11 6.46 11.18 6.46 12.5V71.37H48.68V12.5C48.68 11.18 47.61 10.11 46.29 10.11Z" fill="#DEE5FF" stroke="#263056" stroke-width="2" stroke-miterlimit="10" stroke-linecap="round" stroke-linejoin="round"/>
<path d="M37.95 1H17.05C15.74 1 14.67 2.07 14.67 3.38V68.98C14.67 70.29 15.74 71.36 17.05 71.36H37.95C39.26 71.36 40.33 70.29 40.33 68.98V3.38C40.33 2.07 39.26 1 37.95 1Z" fill="#F6F6F9" stroke="#263056" stroke-width="2" stroke-miterlimit="10" stroke-linecap="round" stroke-linejoin="round"/>
<path d="M24.44 15.41H30.56" stroke="#263056" stroke-width="2" stroke-miterlimit="10" stroke-linecap="round" stroke-linejoin="round"/>
<path d="M24.44 21.36H30.56" stroke="#263056" stroke-width="2" stroke-miterlimit="10" stroke-linecap="round" stroke-linejoin="round"/>
<path d="M24.44 27.32H30.56" stroke="#263056" stroke-width="2" stroke-miterlimit="10" stroke-linecap="round" stroke-linejoin="round"/>
<path d="M56.3 48.35L40.33 34.77L24.44 48.35V71.36H56.3V48.35Z" fill="#F6F6F9" stroke="#263056" stroke-width="2" stroke-miterlimit="10" stroke-linecap="round" stroke-linejoin="round"/>
<path d="M49.02 54.81H32.46V71.37H49.02V54.81Z" fill="#DEE5FF" stroke="#263056" stroke-width="2" stroke-miterlimit="10" stroke-linecap="round" stroke-linejoin="round"/>
<path d="M61.43 71.36H1" stroke="#263056" stroke-width="2" stroke-miterlimit="10" stroke-linecap="round" stroke-linejoin="round"/>
</g>
<defs>
<clipPath id="clip0">
<rect width="62.43" height="72.36" fill="white"/>
</clipPath>
</defs>
</svg>
