<svg width="87" height="61" viewBox="0 0 87 61" fill="none" xmlns="http://www.w3.org/2000/svg">
<path d="M33.4264 1.18446H17.0765C8.29799 1.18446 1.17203 8.38602 1.17203 17.2577C1.17203 26.1412 8.29799 33.3309 17.0765 33.3309H20.1824L30.3088 44.1332V33.3309H33.4147C42.2049 33.3309 49.3191 26.1293 49.3191 17.2577C49.3309 8.38602 42.2166 1.18446 33.4264 1.18446Z" stroke="#263056" stroke-width="2" stroke-miterlimit="10" stroke-linecap="round" stroke-linejoin="round"/>
<path d="M13.6308 20.2781C15.5015 20.2781 17.0179 18.7455 17.0179 16.855C17.0179 14.9644 15.5015 13.4319 13.6308 13.4319C11.7601 13.4319 10.2436 14.9644 10.2436 16.855C10.2436 18.7455 11.7601 20.2781 13.6308 20.2781Z" stroke="#263056" stroke-width="2" stroke-miterlimit="10" stroke-linecap="round" stroke-linejoin="round"/>
<path d="M24.8588 20.2781C26.7295 20.2781 28.246 18.7455 28.246 16.855C28.246 14.9644 26.7295 13.4319 24.8588 13.4319C22.9881 13.4319 21.4716 14.9644 21.4716 16.855C21.4716 18.7455 22.9881 20.2781 24.8588 20.2781Z" stroke="#263056" stroke-width="2" stroke-miterlimit="10" stroke-linecap="round" stroke-linejoin="round"/>
<path d="M36.0986 20.2781C37.9693 20.2781 39.4858 18.7455 39.4858 16.855C39.4858 14.9644 37.9693 13.4319 36.0986 13.4319C34.2279 13.4319 32.7115 14.9644 32.7115 16.855C32.7115 18.7455 34.2279 20.2781 36.0986 20.2781Z" stroke="#263056" stroke-width="2" stroke-miterlimit="10" stroke-linecap="round" stroke-linejoin="round"/>
<path d="M69.9116 16.8549H53.5618C44.7715 16.8549 37.6573 24.0565 37.6573 32.9281C37.6573 41.8116 44.7832 49.0013 53.5618 49.0013V59.8037L63.6881 49.0013H69.9116C78.7019 49.0013 85.8161 41.7998 85.8161 32.9281C85.8278 24.0565 78.7019 16.8549 69.9116 16.8549Z" fill="#DEE5FF" stroke="#263056" stroke-width="2" stroke-miterlimit="10" stroke-linecap="round" stroke-linejoin="round"/>
<path d="M47.83 37.0583V35.5183L50.866 32.7683C51.0567 32.5849 51.2107 32.3979 51.328 32.2073C51.4454 32.0166 51.504 31.8039 51.504 31.5693C51.504 31.2906 51.416 31.0669 51.24 30.8983C51.064 30.7223 50.8294 30.6342 50.536 30.6342C50.228 30.6342 49.975 30.7442 49.777 30.9643C49.5864 31.1769 49.4727 31.4593 49.436 31.8113L47.665 31.5693C47.709 31.1733 47.8154 30.8213 47.984 30.5133C48.16 30.2053 48.38 29.9449 48.644 29.7323C48.908 29.5123 49.2087 29.3473 49.546 29.2373C49.8907 29.1199 50.2537 29.0612 50.635 29.0612C50.9944 29.0612 51.3427 29.1089 51.68 29.2042C52.0174 29.2996 52.318 29.4463 52.582 29.6443C52.846 29.8423 53.055 30.0916 53.209 30.3923C53.3704 30.6929 53.451 31.0449 53.451 31.4482C53.451 31.7269 53.4144 31.9799 53.341 32.2073C53.2677 32.4273 53.165 32.6326 53.033 32.8233C52.9084 33.0139 52.7617 33.1936 52.593 33.3623C52.4317 33.5236 52.263 33.6849 52.087 33.8463L50.283 35.4523H53.462V37.0583H47.83ZM60.8584 35.5403V37.0583H59.1313V35.5403H55.4683V33.9893L58.6364 29.2703H60.8473V34.0443H61.9254V35.5403H60.8584ZM59.1424 31.1623H59.1093L57.2613 34.0443H59.1424V31.1623ZM64.4707 37.6303L63.2277 37.2233L66.6267 28.6763L67.8697 29.1052L64.4707 37.6303ZM72.2361 37.0583H70.0911L73.2481 30.8543H69.5631V29.2703H75.2171V30.7443L72.2361 37.0583Z" fill="#263056"/>
</svg>
