<svg width="99" height="25" viewBox="0 0 99 25" fill="none" xmlns="http://www.w3.org/2000/svg">
<path d="M4.80801 5.51196V9.01596H11.384V12.4H4.80801V19H0.752014V2.00796H11.936V5.51196H4.80801Z" fill="#263056"/>
<path d="M14.4121 19V0.855957H18.3961V19H14.4121Z" fill="#263056"/>
<path d="M28.5686 13.792H28.0646C27.6326 13.792 27.1926 13.816 26.7446 13.864C26.3126 13.896 25.9206 13.968 25.5686 14.08C25.2326 14.192 24.9526 14.36 24.7286 14.584C24.5046 14.792 24.3926 15.072 24.3926 15.424C24.3926 15.648 24.4406 15.84 24.5366 16C24.6486 16.16 24.7846 16.288 24.9446 16.384C25.1046 16.48 25.2886 16.552 25.4966 16.6C25.7046 16.632 25.9046 16.648 26.0966 16.648C26.8966 16.648 27.5046 16.432 27.9206 16C28.3526 15.552 28.5686 14.952 28.5686 14.2V13.792ZM21.3446 8.67996C22.0486 8.00796 22.8646 7.50396 23.7926 7.16796C24.7366 6.83196 25.6966 6.66396 26.6726 6.66396C27.6806 6.66396 28.5286 6.79196 29.2166 7.04796C29.9206 7.28796 30.4886 7.67196 30.9206 8.19996C31.3526 8.71196 31.6646 9.36796 31.8566 10.168C32.0646 10.952 32.1686 11.888 32.1686 12.976V19H28.5686V17.728H28.4966C28.1926 18.224 27.7286 18.608 27.1046 18.88C26.4966 19.152 25.8326 19.288 25.1126 19.288C24.6326 19.288 24.1366 19.224 23.6246 19.096C23.1126 18.968 22.6406 18.76 22.2086 18.472C21.7926 18.184 21.4486 17.8 21.1766 17.32C20.9046 16.84 20.7686 16.248 20.7686 15.544C20.7686 14.68 21.0006 13.984 21.4646 13.456C21.9446 12.928 22.5526 12.52 23.2886 12.232C24.0406 11.944 24.8726 11.752 25.7846 11.656C26.6966 11.56 27.5846 11.512 28.4486 11.512V11.32C28.4486 10.728 28.2406 10.296 27.8246 10.024C27.4086 9.73596 26.8966 9.59196 26.2886 9.59196C25.7286 9.59196 25.1846 9.71196 24.6566 9.95196C24.1446 10.192 23.7046 10.48 23.3366 10.816L21.3446 8.67996Z" fill="#263056"/>
<path d="M39.144 9.99996V14.56C39.144 15.12 39.248 15.544 39.456 15.832C39.68 16.104 40.072 16.24 40.632 16.24C40.824 16.24 41.024 16.224 41.232 16.192C41.456 16.16 41.64 16.112 41.784 16.048L41.832 18.928C41.56 19.024 41.216 19.104 40.8 19.168C40.384 19.248 39.968 19.288 39.552 19.288C38.752 19.288 38.08 19.192 37.536 19C36.992 18.792 36.552 18.504 36.216 18.136C35.896 17.752 35.664 17.304 35.52 16.792C35.376 16.264 35.304 15.68 35.304 15.04V9.99996H33.384V7.04796H35.28V3.90396H39.144V7.04796H41.952V9.99996H39.144Z" fill="#263056"/>
<path d="M50.8336 10.576C50.5136 10.272 50.1376 10.016 49.7056 9.80796C49.2736 9.59996 48.8176 9.49596 48.3376 9.49596C47.9696 9.49596 47.6256 9.56796 47.3056 9.71196C47.0016 9.85596 46.8496 10.104 46.8496 10.456C46.8496 10.792 47.0176 11.032 47.3536 11.176C47.7056 11.32 48.2656 11.48 49.0336 11.656C49.4816 11.752 49.9296 11.888 50.3776 12.064C50.8416 12.24 51.2576 12.472 51.6256 12.76C51.9936 13.048 52.2896 13.4 52.5136 13.816C52.7376 14.232 52.8496 14.728 52.8496 15.304C52.8496 16.056 52.6976 16.696 52.3936 17.224C52.0896 17.736 51.6896 18.152 51.1936 18.472C50.7136 18.792 50.1696 19.024 49.5616 19.168C48.9536 19.312 48.3456 19.384 47.7376 19.384C46.7616 19.384 45.8016 19.232 44.8576 18.928C43.9296 18.608 43.1536 18.144 42.5296 17.536L44.7376 15.208C45.0896 15.592 45.5216 15.912 46.0336 16.168C46.5456 16.424 47.0896 16.552 47.6656 16.552C47.9856 16.552 48.2976 16.48 48.6016 16.336C48.9216 16.176 49.0816 15.904 49.0816 15.52C49.0816 15.152 48.8896 14.88 48.5056 14.704C48.1216 14.528 47.5216 14.344 46.7056 14.152C46.2896 14.056 45.8736 13.928 45.4576 13.768C45.0416 13.608 44.6656 13.392 44.3296 13.12C44.0096 12.848 43.7456 12.512 43.5376 12.112C43.3296 11.712 43.2256 11.232 43.2256 10.672C43.2256 9.95196 43.3776 9.34396 43.6816 8.84796C43.9856 8.33596 44.3776 7.91996 44.8576 7.59996C45.3376 7.27996 45.8656 7.04796 46.4416 6.90396C47.0336 6.74396 47.6176 6.66396 48.1936 6.66396C49.0896 6.66396 49.9616 6.80796 50.8096 7.09596C51.6736 7.36796 52.4016 7.78396 52.9936 8.34396L50.8336 10.576Z" fill="#263056"/>
<path d="M59.394 9.99996V14.56C59.394 15.12 59.498 15.544 59.706 15.832C59.93 16.104 60.322 16.24 60.882 16.24C61.074 16.24 61.274 16.224 61.482 16.192C61.706 16.16 61.89 16.112 62.034 16.048L62.082 18.928C61.81 19.024 61.466 19.104 61.05 19.168C60.634 19.248 60.218 19.288 59.802 19.288C59.002 19.288 58.33 19.192 57.786 19C57.242 18.792 56.802 18.504 56.466 18.136C56.146 17.752 55.914 17.304 55.77 16.792C55.626 16.264 55.554 15.68 55.554 15.04V9.99996H53.634V7.04796H55.53V3.90396H59.394V7.04796H62.202V9.99996H59.394Z" fill="#263056"/>
<path d="M72.2836 11.656C72.2836 11.032 72.0836 10.496 71.6836 10.048C71.2996 9.59996 70.7156 9.37596 69.9316 9.37596C69.5476 9.37596 69.1956 9.43996 68.8756 9.56796C68.5556 9.67996 68.2756 9.83996 68.0356 10.048C67.7956 10.256 67.6036 10.504 67.4596 10.792C67.3156 11.064 67.2356 11.352 67.2196 11.656H72.2836ZM75.9076 13.168C75.9076 13.328 75.9076 13.488 75.9076 13.648C75.9076 13.808 75.8996 13.96 75.8836 14.104H67.2196C67.2516 14.44 67.3476 14.744 67.5076 15.016C67.6836 15.288 67.8996 15.528 68.1556 15.736C68.4276 15.928 68.7236 16.08 69.0436 16.192C69.3796 16.304 69.7236 16.36 70.0756 16.36C70.6996 16.36 71.2276 16.248 71.6596 16.024C72.0916 15.784 72.4436 15.48 72.7156 15.112L75.4516 16.84C74.8916 17.656 74.1476 18.288 73.2196 18.736C72.3076 19.168 71.2436 19.384 70.0276 19.384C69.1316 19.384 68.2836 19.248 67.4836 18.976C66.6836 18.688 65.9796 18.28 65.3716 17.752C64.7796 17.208 64.3076 16.544 63.9556 15.76C63.6196 14.976 63.4516 14.08 63.4516 13.072C63.4516 12.096 63.6196 11.216 63.9556 10.432C64.2916 9.63196 64.7476 8.95996 65.3236 8.41596C65.8996 7.85596 66.5796 7.42396 67.3636 7.11996C68.1476 6.81596 68.9956 6.66396 69.9076 6.66396C70.7876 6.66396 71.5956 6.81596 72.3316 7.11996C73.0676 7.40796 73.6996 7.83196 74.2276 8.39196C74.7556 8.95196 75.1636 9.63196 75.4516 10.432C75.7556 11.232 75.9076 12.144 75.9076 13.168Z" fill="#263056"/>
<path d="M91.6445 12.976C91.6445 13.808 91.5165 14.608 91.2605 15.376C91.0045 16.144 90.6285 16.824 90.1325 17.416C89.6525 17.992 89.0605 18.456 88.3565 18.808C87.6525 19.16 86.8525 19.336 85.9565 19.336C85.2205 19.336 84.5245 19.192 83.8685 18.904C83.2125 18.6 82.7005 18.192 82.3325 17.68H82.2845V24.76H78.3485V7.04796H82.0925V8.51196H82.1645C82.5325 8.03196 83.0365 7.61596 83.6765 7.26396C84.3325 6.89596 85.1005 6.71196 85.9805 6.71196C86.8445 6.71196 87.6285 6.87996 88.3325 7.21596C89.0365 7.55196 89.6285 8.00796 90.1085 8.58396C90.6045 9.15996 90.9805 9.83196 91.2365 10.6C91.5085 11.352 91.6445 12.144 91.6445 12.976ZM87.8285 12.976C87.8285 12.592 87.7645 12.216 87.6365 11.848C87.5245 11.48 87.3485 11.16 87.1085 10.888C86.8845 10.6 86.5965 10.368 86.2445 10.192C85.8925 10.016 85.4845 9.92796 85.0205 9.92796C84.5725 9.92796 84.1725 10.016 83.8205 10.192C83.4685 10.368 83.1645 10.6 82.9085 10.888C82.6685 11.176 82.4765 11.504 82.3325 11.872C82.2045 12.24 82.1405 12.616 82.1405 13C82.1405 13.384 82.2045 13.76 82.3325 14.128C82.4765 14.496 82.6685 14.824 82.9085 15.112C83.1645 15.4 83.4685 15.632 83.8205 15.808C84.1725 15.984 84.5725 16.072 85.0205 16.072C85.4845 16.072 85.8925 15.984 86.2445 15.808C86.5965 15.632 86.8845 15.4 87.1085 15.112C87.3485 14.824 87.5245 14.496 87.6365 14.128C87.7645 13.744 87.8285 13.36 87.8285 12.976Z" fill="#263056"/>
<path d="M98.61 16.8879C98.61 17.5599 98.37 18.1199 97.89 18.5679C97.426 19.0159 96.866 19.2399 96.21 19.2399C95.874 19.2399 95.554 19.1759 95.25 19.0479C94.962 18.9359 94.706 18.7759 94.482 18.5679C94.258 18.3599 94.082 18.1199 93.954 17.8479C93.826 17.5599 93.762 17.2479 93.762 16.9119C93.762 16.5919 93.826 16.2879 93.954 15.9999C94.082 15.7119 94.258 15.4639 94.482 15.2559C94.706 15.0319 94.962 14.8559 95.25 14.7279C95.554 14.5999 95.874 14.5359 96.21 14.5359C96.866 14.5359 97.426 14.7599 97.89 15.2079C98.37 15.6559 98.61 16.2159 98.61 16.8879Z" fill="#F6D29C"/>
</svg>
