<svg width="22" height="22" viewBox="0 0 22 22" fill="none" xmlns="http://www.w3.org/2000/svg">
<path fill-rule="evenodd" clip-rule="evenodd" d="M11 21.0834C5.43112 21.0834 0.916656 16.569 0.916656 11.0001C0.916656 5.43121 5.43112 0.916748 11 0.916748C16.5689 0.916748 21.0833 5.43121 21.0833 11.0001C21.0833 16.569 16.5689 21.0834 11 21.0834ZM17.7829 15.6977C18.7079 14.3645 19.25 12.7456 19.25 11.0001C19.25 6.44373 15.5563 2.75008 11 2.75008C6.44364 2.75008 2.74999 6.44373 2.74999 11.0001C2.74999 12.7456 3.29209 14.3645 4.21712 15.6977C5.2485 14.3353 7.67173 13.7504 10.9973 13.7501C8.94604 13.7488 7.33332 12.3071 7.33332 9.16675C7.33332 7.10953 8.78083 5.50008 11 5.50008C13.213 5.50008 14.6667 7.26153 14.6667 9.35008C14.6667 12.3564 13.0332 13.7501 11 13.7501C14.3269 13.7501 16.7512 14.335 17.7829 15.6977ZM16.4676 17.1782C16.1993 16.2135 14.2719 15.5834 11 15.5834C7.72806 15.5834 5.80066 16.2135 5.53236 17.1782C6.98801 18.4674 8.9026 19.2501 11 19.2501C13.0974 19.2501 15.012 18.4674 16.4676 17.1782ZM9.16666 9.16675C9.16666 11.2469 9.91668 11.9167 11 11.9167C12.0796 11.9167 12.8333 11.2736 12.8333 9.35008C12.8333 8.20463 12.1143 7.33342 11 7.33342C9.83925 7.33342 9.16666 8.08125 9.16666 9.16675Z" fill="#263056"/>
</svg>
