<svg width="14" height="16" viewBox="0 0 14 16" fill="none" xmlns="http://www.w3.org/2000/svg">
<path fill-rule="evenodd" clip-rule="evenodd" d="M7 0.416748C3.59966 0.416748 0.75 3.02284 0.75 6.66675C0.75 9.25695 2.70524 12.1336 6.39708 15.3572L7 15.8837L7.60292 15.3572C11.2948 12.1336 13.25 9.25695 13.25 6.66675C13.25 3.02284 10.4003 0.416748 7 0.416748ZM2.58332 6.66674C2.58332 4.07546 4.57447 2.25008 6.99999 2.25008C9.4255 2.25008 11.4167 4.07546 11.4167 6.66674C11.4167 7.55005 11.0582 8.57455 10.2974 9.73934C9.56513 10.8603 8.47037 12.0956 6.99999 13.4381C5.5296 12.0956 4.43484 10.8603 3.70261 9.73934C2.94177 8.57455 2.58332 7.55005 2.58332 6.66674ZM7.00001 3.08342C5.02099 3.08342 3.41668 4.68773 3.41668 6.66675C3.41668 8.64577 5.02099 10.2501 7.00001 10.2501C8.97903 10.2501 10.5833 8.64577 10.5833 6.66675C10.5833 4.68773 8.97903 3.08342 7.00001 3.08342ZM5.25 6.66675C5.25 5.70025 6.0335 4.91675 7 4.91675C7.9665 4.91675 8.75 5.70025 8.75 6.66675C8.75 7.63325 7.9665 8.41675 7 8.41675C6.0335 8.41675 5.25 7.63325 5.25 6.66675Z" fill="#263056"/>
</svg>
