<svg width="98" height="24" viewBox="0 0 98 24" fill="none" xmlns="http://www.w3.org/2000/svg">
<path d="M4.056 4.656V8.16H10.632V11.544H4.056V18.144H0V1.152H11.184V4.656H4.056Z" fill="white"/>
<path d="M13.6601 18.144V0H17.6441V18.144H13.6601Z" fill="white"/>
<path d="M27.8166 12.936H27.3126C26.8806 12.936 26.4406 12.96 25.9926 13.008C25.5606 13.04 25.1686 13.112 24.8166 13.224C24.4806 13.336 24.2006 13.504 23.9766 13.728C23.7526 13.936 23.6406 14.216 23.6406 14.568C23.6406 14.792 23.6886 14.984 23.7846 15.144C23.8966 15.304 24.0326 15.432 24.1926 15.528C24.3526 15.624 24.5366 15.696 24.7446 15.744C24.9526 15.776 25.1526 15.792 25.3446 15.792C26.1446 15.792 26.7526 15.576 27.1686 15.144C27.6006 14.696 27.8166 14.096 27.8166 13.344V12.936ZM20.5926 7.824C21.2966 7.152 22.1126 6.648 23.0406 6.312C23.9846 5.976 24.9446 5.808 25.9206 5.808C26.9286 5.808 27.7766 5.936 28.4646 6.192C29.1686 6.432 29.7366 6.816 30.1686 7.344C30.6006 7.856 30.9126 8.512 31.1046 9.312C31.3126 10.096 31.4166 11.032 31.4166 12.12V18.144H27.8166V16.872H27.7446C27.4406 17.368 26.9766 17.752 26.3526 18.024C25.7446 18.296 25.0806 18.432 24.3606 18.432C23.8806 18.432 23.3846 18.368 22.8726 18.24C22.3606 18.112 21.8886 17.904 21.4566 17.616C21.0406 17.328 20.6966 16.944 20.4246 16.464C20.1526 15.984 20.0166 15.392 20.0166 14.688C20.0166 13.824 20.2486 13.128 20.7126 12.6C21.1926 12.072 21.8006 11.664 22.5366 11.376C23.2886 11.088 24.1206 10.896 25.0326 10.8C25.9446 10.704 26.8326 10.656 27.6966 10.656V10.464C27.6966 9.872 27.4886 9.44 27.0726 9.168C26.6566 8.88 26.1446 8.736 25.5366 8.736C24.9766 8.736 24.4326 8.856 23.9046 9.096C23.3926 9.336 22.9526 9.624 22.5846 9.96L20.5926 7.824Z" fill="white"/>
<path d="M38.3919 9.144V13.704C38.3919 14.264 38.4959 14.688 38.7039 14.976C38.9279 15.248 39.3199 15.384 39.8799 15.384C40.0719 15.384 40.2719 15.368 40.4799 15.336C40.7039 15.304 40.8879 15.256 41.0319 15.192L41.0799 18.072C40.8079 18.168 40.4639 18.248 40.0479 18.312C39.6319 18.392 39.2159 18.432 38.7999 18.432C37.9999 18.432 37.3279 18.336 36.7839 18.144C36.2399 17.936 35.7999 17.648 35.4639 17.28C35.1439 16.896 34.9119 16.448 34.7679 15.936C34.6239 15.408 34.5519 14.824 34.5519 14.184V9.144H32.6319V6.192H34.5279V3.048H38.3919V6.192H41.1999V9.144H38.3919Z" fill="white"/>
<path d="M50.0816 9.72C49.7616 9.416 49.3856 9.16 48.9536 8.952C48.5216 8.744 48.0656 8.64 47.5856 8.64C47.2176 8.64 46.8736 8.712 46.5536 8.856C46.2496 9 46.0976 9.248 46.0976 9.6C46.0976 9.936 46.2656 10.176 46.6016 10.32C46.9536 10.464 47.5136 10.624 48.2816 10.8C48.7296 10.896 49.1776 11.032 49.6256 11.208C50.0896 11.384 50.5056 11.616 50.8736 11.904C51.2416 12.192 51.5376 12.544 51.7616 12.96C51.9856 13.376 52.0976 13.872 52.0976 14.448C52.0976 15.2 51.9456 15.84 51.6416 16.368C51.3376 16.88 50.9376 17.296 50.4416 17.616C49.9616 17.936 49.4176 18.168 48.8096 18.312C48.2016 18.456 47.5936 18.528 46.9856 18.528C46.0096 18.528 45.0496 18.376 44.1056 18.072C43.1776 17.752 42.4016 17.288 41.7776 16.68L43.9856 14.352C44.3376 14.736 44.7696 15.056 45.2816 15.312C45.7936 15.568 46.3376 15.696 46.9136 15.696C47.2336 15.696 47.5456 15.624 47.8496 15.48C48.1696 15.32 48.3296 15.048 48.3296 14.664C48.3296 14.296 48.1376 14.024 47.7536 13.848C47.3696 13.672 46.7696 13.488 45.9536 13.296C45.5376 13.2 45.1216 13.072 44.7056 12.912C44.2896 12.752 43.9136 12.536 43.5776 12.264C43.2576 11.992 42.9936 11.656 42.7856 11.256C42.5776 10.856 42.4736 10.376 42.4736 9.816C42.4736 9.096 42.6256 8.488 42.9296 7.992C43.2336 7.48 43.6256 7.064 44.1056 6.744C44.5856 6.424 45.1136 6.192 45.6896 6.048C46.2816 5.888 46.8656 5.808 47.4416 5.808C48.3376 5.808 49.2096 5.952 50.0576 6.24C50.9216 6.512 51.6496 6.928 52.2416 7.488L50.0816 9.72Z" fill="white"/>
<path d="M58.6419 9.144V13.704C58.6419 14.264 58.7459 14.688 58.9539 14.976C59.1779 15.248 59.5699 15.384 60.1299 15.384C60.3219 15.384 60.5219 15.368 60.7299 15.336C60.9539 15.304 61.1379 15.256 61.2819 15.192L61.3299 18.072C61.0579 18.168 60.7139 18.248 60.2979 18.312C59.8819 18.392 59.4659 18.432 59.0499 18.432C58.2499 18.432 57.5779 18.336 57.0339 18.144C56.4899 17.936 56.0499 17.648 55.7139 17.28C55.3939 16.896 55.1619 16.448 55.0179 15.936C54.8739 15.408 54.8019 14.824 54.8019 14.184V9.144H52.8819V6.192H54.7779V3.048H58.6419V6.192H61.4499V9.144H58.6419Z" fill="white"/>
<path d="M71.5316 10.8C71.5316 10.176 71.3316 9.64 70.9316 9.192C70.5476 8.744 69.9636 8.52 69.1796 8.52C68.7956 8.52 68.4436 8.584 68.1236 8.712C67.8036 8.824 67.5236 8.984 67.2836 9.192C67.0436 9.4 66.8516 9.648 66.7076 9.936C66.5636 10.208 66.4836 10.496 66.4676 10.8H71.5316ZM75.1556 12.312C75.1556 12.472 75.1556 12.632 75.1556 12.792C75.1556 12.952 75.1476 13.104 75.1316 13.248H66.4676C66.4996 13.584 66.5956 13.888 66.7556 14.16C66.9316 14.432 67.1476 14.672 67.4036 14.88C67.6756 15.072 67.9716 15.224 68.2916 15.336C68.6276 15.448 68.9716 15.504 69.3236 15.504C69.9476 15.504 70.4756 15.392 70.9076 15.168C71.3396 14.928 71.6916 14.624 71.9636 14.256L74.6996 15.984C74.1396 16.8 73.3956 17.432 72.4676 17.88C71.5556 18.312 70.4916 18.528 69.2756 18.528C68.3796 18.528 67.5316 18.392 66.7316 18.12C65.9316 17.832 65.2276 17.424 64.6196 16.896C64.0276 16.352 63.5556 15.688 63.2036 14.904C62.8676 14.12 62.6996 13.224 62.6996 12.216C62.6996 11.24 62.8676 10.36 63.2036 9.576C63.5396 8.776 63.9956 8.104 64.5716 7.56C65.1476 7 65.8276 6.568 66.6116 6.264C67.3956 5.96 68.2436 5.808 69.1556 5.808C70.0356 5.808 70.8436 5.96 71.5796 6.264C72.3156 6.552 72.9476 6.976 73.4756 7.536C74.0036 8.096 74.4116 8.776 74.6996 9.576C75.0036 10.376 75.1556 11.288 75.1556 12.312Z" fill="white"/>
<path d="M90.8925 12.12C90.8925 12.952 90.7645 13.752 90.5085 14.52C90.2525 15.288 89.8765 15.968 89.3805 16.56C88.9005 17.136 88.3085 17.6 87.6045 17.952C86.9005 18.304 86.1005 18.48 85.2045 18.48C84.4685 18.48 83.7725 18.336 83.1165 18.048C82.4605 17.744 81.9485 17.336 81.5805 16.824H81.5325V23.904H77.5965V6.192H81.3405V7.656H81.4125C81.7805 7.176 82.2845 6.76 82.9245 6.408C83.5805 6.04 84.3485 5.856 85.2285 5.856C86.0925 5.856 86.8765 6.024 87.5805 6.36C88.2845 6.696 88.8765 7.152 89.3565 7.728C89.8525 8.304 90.2285 8.976 90.4845 9.744C90.7565 10.496 90.8925 11.288 90.8925 12.12ZM87.0765 12.12C87.0765 11.736 87.0125 11.36 86.8845 10.992C86.7725 10.624 86.5965 10.304 86.3565 10.032C86.1325 9.744 85.8445 9.512 85.4925 9.336C85.1405 9.16 84.7325 9.072 84.2685 9.072C83.8205 9.072 83.4205 9.16 83.0685 9.336C82.7165 9.512 82.4125 9.744 82.1565 10.032C81.9165 10.32 81.7245 10.648 81.5805 11.016C81.4525 11.384 81.3885 11.76 81.3885 12.144C81.3885 12.528 81.4525 12.904 81.5805 13.272C81.7245 13.64 81.9165 13.968 82.1565 14.256C82.4125 14.544 82.7165 14.776 83.0685 14.952C83.4205 15.128 83.8205 15.216 84.2685 15.216C84.7325 15.216 85.1405 15.128 85.4925 14.952C85.8445 14.776 86.1325 14.544 86.3565 14.256C86.5965 13.968 86.7725 13.64 86.8845 13.272C87.0125 12.888 87.0765 12.504 87.0765 12.12Z" fill="white"/>
<path d="M97.858 16.0319C97.858 16.7039 97.618 17.2639 97.138 17.7119C96.674 18.1599 96.114 18.3839 95.458 18.3839C95.122 18.3839 94.802 18.3199 94.498 18.1919C94.21 18.0799 93.954 17.9199 93.73 17.7119C93.506 17.5039 93.33 17.2639 93.202 16.9919C93.074 16.7039 93.01 16.3919 93.01 16.0559C93.01 15.7359 93.074 15.4319 93.202 15.1439C93.33 14.8559 93.506 14.6079 93.73 14.3999C93.954 14.1759 94.21 13.9999 94.498 13.8719C94.802 13.7439 95.122 13.6799 95.458 13.6799C96.114 13.6799 96.674 13.9039 97.138 14.3519C97.618 14.7999 97.858 15.3599 97.858 16.0319Z" fill="#F6D29C"/>
</svg>
